<svg width="512" height="512" viewBox="0 0 512 512" fill="none" xmlns="http://www.w3.org/2000/svg">
  <defs>
    <linearGradient id="grad1" x1="0%" y1="0%" x2="100%" y2="100%">
      <stop offset="0%" style="stop-color:#2563EB;stop-opacity:1" />
      <stop offset="100%" style="stop-color:#059669;stop-opacity:1" />
    </linearGradient>
    <filter id="glow" x="-20%" y="-20%" width="140%" height="140%">
      <feGaussianBlur stdDeviation="10" result="blur" />
      <feComposite in="SourceGraphic" in2="blur" operator="over" />
    </filter>
  </defs>
  
  <circle cx="256" cy="256" r="240" fill="white" />
  
  <g filter="url(#glow)">
    <!-- Interlocking Shapes representing Connection/Link -->
    <path d="M180 160 C 180 115, 250 115, 250 160 L 250 352 C 250 397, 180 397, 180 352 Z" fill="url(#grad1)" opacity="0.9" />
    <path d="M332 160 C 332 115, 262 115, 262 160 L 262 352 C 262 397, 332 397, 332 352 Z" fill="url(#grad1)" opacity="0.9" />
    
    <!-- Cross/Plus in the negative space or overlay -->
    <rect x="236" y="140" width="40" height="232" rx="20" fill="white" opacity="0.2" />
    <rect x="140" y="236" width="232" height="40" rx="20" fill="white" opacity="0.2" />
  </g>
  
  <!-- Central Pulse Line -->
  <path d="M160 256 L 200 256 L 220 216 L 240 296 L 260 236 L 280 276 L 300 256 L 352 256" stroke="white" stroke-width="24" stroke-linecap="round" stroke-linejoin="round" />
</svg>
